<svg width="78" height="16" viewBox="0 0 78 16" fill="none" xmlns="http://www.w3.org/2000/svg">
<g clip-path="url(#clip0_3375_1499)">
<path d="M54.4021 3.99189C53.9495 3.98882 53.4948 4.02227 53.062 4.1329C52.3692 4.30999 51.7164 4.63514 51.1333 5.02305C50.5537 5.40859 50.0512 5.89771 49.6175 6.42171C49.168 6.96484 48.7639 7.55792 48.5154 8.20174C48.2967 8.76844 48.2004 9.38051 48.194 9.98206C48.1877 10.5674 48.1867 11.1958 48.4695 11.7199C48.7605 12.2593 49.2703 12.7212 49.8453 13.0067C50.4356 13.2998 51.1485 13.3954 51.8181 13.3663C52.5006 13.3366 53.1661 13.0988 53.7826 12.8269C54.3515 12.576 54.872 12.2264 55.3415 11.838C55.8415 11.4242 56.2844 10.945 56.6566 10.4291C56.9852 9.97355 57.2562 9.47703 57.4523 8.96053C57.6408 8.46403 57.7743 7.94228 57.8096 7.41719C57.8404 6.95678 57.8395 6.47534 57.6795 6.03836C57.5112 5.57888 57.2088 5.15076 56.8353 4.80958C56.514 4.51608 56.1037 4.30133 55.6823 4.15017C55.4201 4.0561 55.1338 4.02003 54.853 4.00577C54.7035 3.99819 54.5529 3.99292 54.4021 3.99189ZM54.289 6.11339C54.4368 6.11592 54.5857 6.13522 54.7177 6.19125C54.8903 6.26459 55.0369 6.39492 55.1451 6.53864C55.2853 6.72473 55.3739 6.94875 55.408 7.17286C55.4523 7.46313 55.3907 7.7621 55.3261 8.04915C55.2629 8.32979 55.1551 8.60205 55.0299 8.86456C54.8842 9.17004 54.7191 9.47231 54.5038 9.74084C54.2692 10.0332 53.9939 10.3032 53.6818 10.5262C53.3931 10.7325 53.0693 10.904 52.7279 11.0245C52.466 11.117 52.1865 11.1919 51.9059 11.1907C51.636 11.1896 51.3507 11.148 51.1166 11.0245C50.9082 10.9145 50.7348 10.737 50.6235 10.5412C50.5016 10.3268 50.4593 10.0734 50.4589 9.83142C50.4585 9.51248 50.5558 9.19512 50.6728 8.89485C50.8166 8.52592 51.028 8.17871 51.2646 7.85263C51.4782 7.55813 51.7212 7.27673 52.0046 7.03695C52.3199 6.77006 52.6662 6.51969 53.0568 6.35715C53.3958 6.21606 53.7705 6.13203 54.1423 6.11565C54.1911 6.11339 54.24 6.11264 54.289 6.11337V6.11339Z" fill="#144999"/>
<path d="M34.0897 2.78087H14.3898L7.64628 7.02469L8.39003 6.09782L9.45163 2.78087H4.30091L0 16H5.08959L6.79659 11.0735L7.4867 10.6343L9.77025 16H14.921L11.7883 8.1874L15.9826 5.61005L20.2306 5.65932L16.992 16H22.142L25.3813 5.70799H30.2662L35.3638 16H40.514L36.16 6.97592L33.7445 7.56851L35.4169 5.56128L34.0897 2.78087Z" fill="#144999"/>
<path d="M24.9541 16H30.2131C30.2131 16 40.6205 2.0003 53.5234 0.000354767C53.5234 0.000354767 37.6974 -0.292248 24.9541 16Z" fill="#C21540"/>
<path d="M56.7402 15.9787H59.2723L63.3829 3.78927H60.8837L56.7402 15.9787ZM64.353 9.27226L63.7447 10.8734H77.4247L78.0001 9.24205L64.353 9.27226ZM75.5995 11.7344C74.0668 11.7344 64.764 11.7494 64.764 11.7494L63.383 15.9182H75.1227C75.1227 15.9182 75.894 13.6817 76.2409 12.6707C76.3551 12.3378 75.9971 11.7344 75.5995 11.7344ZM73.5607 13.4564L73.1989 14.3324H66.4083L66.737 13.4714L73.5607 13.4564ZM72.388 3.46759C71.5548 3.47538 70.71 3.53715 69.9055 3.73659C69.1616 3.92094 68.3969 4.15181 67.7853 4.58227C67.1813 5.00743 66.4582 5.52893 66.3627 6.22244C66.3013 6.66815 66.6135 7.13759 66.9625 7.45234C67.5719 8.002 68.388 8.24827 69.3196 8.37505C70.5648 8.54454 72.3198 8.62412 73.5737 8.47755C74.6472 8.35205 75.7718 8.09437 76.6421 7.50359C77.2255 7.10762 77.8861 6.55455 77.9252 5.8892C77.9593 5.30836 77.4574 4.75603 76.9769 4.37729C76.4697 3.97756 75.758 3.85322 75.1079 3.71108C74.2218 3.51734 73.2989 3.4591 72.388 3.46759ZM72.2675 4.89767C72.7738 4.89417 73.2864 4.91831 73.779 4.99846C74.1403 5.05729 74.536 5.10882 74.8179 5.27424C75.085 5.43098 75.3639 5.65957 75.3449 5.89994C75.3232 6.1753 74.956 6.40427 74.6318 6.56813C74.148 6.81263 73.5231 6.91909 72.9264 6.97104C72.2296 7.0317 71.2541 6.99869 70.5619 6.92855C70.0442 6.8761 69.5905 6.77435 69.2518 6.5469C69.0578 6.41664 68.8842 6.22229 68.9183 6.03783C68.9714 5.75083 69.3734 5.53512 69.7091 5.35917C70.049 5.18103 70.474 5.08554 70.8874 5.00922C71.3345 4.92669 71.8044 4.90089 72.2675 4.89767Z" fill="#144999"/>
</g>
<defs>
<clipPath id="clip0_3375_1499">
<rect width="78" height="16" fill="white"/>
</clipPath>
</defs>
</svg>
