<svg width="49" height="16" viewBox="0 0 49 16" fill="none" xmlns="http://www.w3.org/2000/svg">
<g clip-path="url(#clip0_4848_5644)">
<path d="M43.6347 0.851731C45.2775 0.451381 46.9513 0.188474 48.632 0.00597826C48.7539 -0.00542771 48.8775 0.000845523 48.9999 0.0133921C48.0647 0.282003 47.1157 0.510692 46.192 0.819794C43.8905 1.56403 41.6764 2.59114 39.6651 3.93134C37.5033 5.35367 35.5473 7.06057 33.716 8.87697C32.5681 9.99076 31.4754 11.161 30.4333 12.3735C29.4182 13.5511 28.456 14.7733 27.5001 15.9989C25.7406 15.9943 23.9811 16.0023 22.2217 15.9949C24.3438 13.5454 26.5229 11.1365 28.9003 8.92716C29.6837 8.19033 30.5 7.48887 31.3328 6.80736C32.9745 5.51335 34.6902 4.28094 36.5974 3.39811C38.8426 2.30371 41.2039 1.44028 43.6347 0.851731Z" fill="#E00024"/>
<path d="M1.5692 10.6207C2.34404 7.98822 3.10795 5.35287 3.8891 2.72266C5.48934 2.72551 7.08901 2.72266 8.68926 2.72437C8.353 3.84386 8.03916 4.97134 7.69485 6.08799C7.4885 6.38968 7.23616 6.65772 7.01486 6.94857C9.03126 5.5405 11.05 4.13586 13.0635 2.7238C19.0408 2.72323 25.0188 2.72437 30.9967 2.72323C31.4232 3.6933 31.8554 4.66053 32.2785 5.63175C31.952 6.01442 31.6301 6.40165 31.3329 6.80713C30.5001 7.48864 29.6838 8.19011 28.9004 8.92693C28.4549 7.86561 27.9692 6.82025 27.514 5.76292C26.0482 5.75721 24.5831 5.76235 23.1173 5.76064C22.1131 9.17273 21.117 12.5877 20.1128 15.9998C18.5126 15.9918 16.9129 16.0043 15.3127 15.9935C16.3134 12.5825 17.3107 9.17102 18.3143 5.76064C17.0716 5.76064 15.8289 5.76121 14.5861 5.76007C13.2951 6.58301 12.0087 7.41222 10.7183 8.23573C11.7006 10.8226 12.6858 13.4078 13.6653 15.9958C12.0645 16.0009 10.4637 15.9946 8.86285 15.9986C8.1932 14.237 7.52644 12.4736 6.85277 10.7131C6.64757 10.8568 6.41247 10.9703 6.22566 11.1323C5.7434 12.7525 5.27322 14.3761 4.79671 15.9981C3.19761 15.9969 1.59852 15.9975 0 15.9981C0.509273 14.2022 1.04844 12.4137 1.5692 10.6207Z" fill="#144999"/>
<path d="M30.4336 12.3735C31.4757 11.161 32.5684 9.99075 33.7163 8.87695C34.7636 11.2505 35.82 13.6201 36.8587 15.9971C35.2516 15.9994 33.6444 15.9966 32.0373 15.9983C31.4998 14.7915 30.9687 13.5813 30.4336 12.3735Z" fill="#144999"/>
</g>
<defs>
<clipPath id="clip0_4848_5644">
<rect width="49" height="16" fill="white"/>
</clipPath>
</defs>
</svg>
