<svg width="59" height="24" viewBox="0 0 59 24" fill="none" xmlns="http://www.w3.org/2000/svg">
<rect width="59" height="24" rx="12" fill="white"/>
<path d="M22 11.5C22.2761 11.5 22.5 11.7239 22.5 12C22.5 12.2761 22.2761 12.5 22 12.5V11.5ZM9.64645 12.3536C9.45118 12.1583 9.45118 11.8417 9.64645 11.6464L12.8284 8.46447C13.0237 8.2692 13.3403 8.2692 13.5355 8.46447C13.7308 8.65973 13.7308 8.97631 13.5355 9.17157L10.7071 12L13.5355 14.8284C13.7308 15.0237 13.7308 15.3403 13.5355 15.5355C13.3403 15.7308 13.0237 15.7308 12.8284 15.5355L9.64645 12.3536ZM22 12.5H10V11.5H22V12.5Z" fill="#0397D6"/>
<path d="M37.2249 6.496V17.008H36.0969V6.496H37.2249ZM28.8729 10.96C28.8729 8.716 30.0129 7.288 31.5849 7.288C33.1569 7.288 34.3089 8.716 34.2969 10.96C34.3089 13.228 33.1569 14.656 31.5849 14.656C30.0129 14.656 28.8729 13.228 28.8729 10.96ZM29.9529 10.96C29.9529 12.628 30.6249 13.66 31.5849 13.648C32.5569 13.66 33.2289 12.628 33.2169 10.96C33.2289 9.316 32.5569 8.284 31.5849 8.272C30.6249 8.284 29.9529 9.316 29.9529 10.96ZM47.644 6.496V14.2H46.54V10.24H44.524V9.352H46.54V6.496H47.644ZM38.884 11.992C40.516 11.452 41.512 10.072 41.524 8.632V8.224H39.244V7.312H44.908V8.224H42.652V8.632C42.64 9.94 43.588 11.248 45.172 11.776L44.596 12.664C43.42 12.256 42.556 11.416 42.1 10.372C41.644 11.536 40.72 12.46 39.46 12.904L38.884 11.992ZM40.828 16.768V13.504H41.932V15.88H47.908V16.768H40.828Z" fill="#0397D6"/>
</svg>
