<svg width="59" height="24" viewBox="0 0 59 24" fill="none" xmlns="http://www.w3.org/2000/svg">
<rect width="59" height="24" rx="12" fill="white"/>
<path d="M18.6969 6.496V10.552H20.3769V11.488H18.6969V17.008H17.5929V6.496H18.6969ZM10.9689 14.416V7.504H15.8649V8.416H12.0729V13.48C13.8369 13.468 15.1569 13.396 16.6569 13.12L16.8009 14.08C15.1569 14.356 13.7529 14.416 11.8089 14.416H10.9689ZM25.66 6.712C27.976 6.712 29.416 7.468 29.404 8.728C29.416 9.976 27.976 10.72 25.66 10.72C23.368 10.72 21.916 9.976 21.916 8.728C21.916 7.468 23.368 6.712 25.66 6.712ZM20.884 12.424V11.536H30.46V12.424H20.884ZM22.036 16.864V13.36H29.284V16.864H22.036ZM23.068 8.728C23.056 9.436 24.052 9.844 25.66 9.856C27.28 9.844 28.276 9.436 28.276 8.728C28.276 8.008 27.28 7.588 25.66 7.6C24.052 7.588 23.056 8.008 23.068 8.728ZM23.14 15.952H28.204V14.248H23.14V15.952Z" fill="#0397D6"/>
<path d="M37 11.5C36.7239 11.5 36.5 11.7239 36.5 12C36.5 12.2761 36.7239 12.5 37 12.5V11.5ZM49.3536 12.3536C49.5488 12.1583 49.5488 11.8417 49.3536 11.6464L46.1716 8.46447C45.9763 8.2692 45.6597 8.2692 45.4645 8.46447C45.2692 8.65973 45.2692 8.97631 45.4645 9.17157L48.2929 12L45.4645 14.8284C45.2692 15.0237 45.2692 15.3403 45.4645 15.5355C45.6597 15.7308 45.9763 15.7308 46.1716 15.5355L49.3536 12.3536ZM37 12.5H49V11.5H37V12.5Z" fill="#0397D6"/>
</svg>
