<svg width="37" height="36" viewBox="0 0 37 36" fill="none" xmlns="http://www.w3.org/2000/svg">
<rect x="0.503418" width="36" height="36" rx="18" fill="black" fill-opacity="0.6"/>
<path fill-rule="evenodd" clip-rule="evenodd" d="M14.2534 8C13.8392 8 13.5034 8.33579 13.5034 8.75V10H9.50342C8.3988 10 7.50342 10.8954 7.50342 12V14H29.5034V12C29.5034 10.8954 28.608 10 27.5034 10H23.5034V8.75C23.5034 8.33579 23.1676 8 22.7534 8C22.3392 8 22.0034 8.33579 22.0034 8.75V10H15.0034V8.75C15.0034 8.33579 14.6676 8 14.2534 8ZM15.0034 10V11.25C15.0034 11.6642 14.6676 12 14.2534 12C13.8392 12 13.5034 11.6642 13.5034 11.25V10H15.0034ZM22.0034 10V11.25C22.0034 11.6642 22.3392 12 22.7534 12C23.1676 12 23.5034 11.6642 23.5034 11.25V10H22.0034Z" fill="white"/>
<path fill-rule="evenodd" clip-rule="evenodd" d="M29.5034 26C29.5034 27.1046 28.608 28 27.5034 28H9.50342C8.3988 28 7.50342 27.1046 7.50342 26V14.5H29.5034V26ZM11.0034 17C10.7273 17 10.5034 17.2238 10.5034 17.5V19.5C10.5034 19.7762 10.7273 20 11.0034 20H13.0034C13.2795 20 13.5034 19.7762 13.5034 19.5V17.5C13.5034 17.2238 13.2795 17 13.0034 17H11.0034ZM15.0034 17.5C15.0034 17.2238 15.2273 17 15.5034 17H17.5034C17.7795 17 18.0034 17.2238 18.0034 17.5V19.5C18.0034 19.7762 17.7795 20 17.5034 20H15.5034C15.2273 20 15.0034 19.7762 15.0034 19.5V17.5ZM20.0034 17C19.7273 17 19.5034 17.2238 19.5034 17.5V19.5C19.5034 19.7762 19.7273 20 20.0034 20H22.0034C22.2795 20 22.5034 19.7762 22.5034 19.5V17.5C22.5034 17.2238 22.2795 17 22.0034 17H20.0034ZM24.0034 17.5C24.0034 17.2238 24.2273 17 24.5034 17H26.5034C26.7795 17 27.0034 17.2238 27.0034 17.5V19.5C27.0034 19.7762 26.7795 20 26.5034 20H24.5034C24.2273 20 24.0034 19.7762 24.0034 19.5V17.5ZM11.0034 21.5C10.7273 21.5 10.5034 21.7238 10.5034 22V24C10.5034 24.2762 10.7273 24.5 11.0034 24.5H13.0034C13.2795 24.5 13.5034 24.2762 13.5034 24V22C13.5034 21.7238 13.2795 21.5 13.0034 21.5H11.0034ZM15.0034 22C15.0034 21.7238 15.2273 21.5 15.5034 21.5H17.5034C17.7795 21.5 18.0034 21.7238 18.0034 22V24C18.0034 24.2762 17.7795 24.5 17.5034 24.5H15.5034C15.2273 24.5 15.0034 24.2762 15.0034 24V22ZM20.0034 21.5C19.7273 21.5 19.5034 21.7238 19.5034 22V24C19.5034 24.2762 19.7273 24.5 20.0034 24.5H22.0034C22.2795 24.5 22.5034 24.2762 22.5034 24V22C22.5034 21.7238 22.2795 21.5 22.0034 21.5H20.0034ZM24.0034 22C24.0034 21.7238 24.2273 21.5 24.5034 21.5H26.5034C26.7795 21.5 27.0034 21.7238 27.0034 22V24C27.0034 24.2762 26.7795 24.5 26.5034 24.5H24.5034C24.2273 24.5 24.0034 24.2762 24.0034 24V22Z" fill="white"/>
</svg>
