<svg width="26" height="26" viewBox="0 0 26 26" fill="none" xmlns="http://www.w3.org/2000/svg">
<rect x="0.5" y="0.5" width="25" height="25" rx="12.5" fill="#EAEAEA"/>
<rect x="0.5" y="0.5" width="25" height="25" rx="12.5" stroke="#DFDFDF"/>
<path d="M13.5 12V12.5H14H20C20.1326 12.5 20.2598 12.5527 20.3536 12.6464C20.4473 12.7402 20.5 12.8674 20.5 13C20.5 13.1326 20.4473 13.2598 20.3536 13.3536C20.2598 13.4473 20.1326 13.5 20 13.5H14H13.5V14V20C13.5 20.1326 13.4473 20.2598 13.3536 20.3536C13.2598 20.4473 13.1326 20.5 13 20.5C12.8674 20.5 12.7402 20.4473 12.6464 20.3536C12.5527 20.2598 12.5 20.1326 12.5 20V14V13.5H12H6C5.86739 13.5 5.74022 13.4473 5.64645 13.3536C5.55268 13.2598 5.5 13.1326 5.5 13C5.5 12.8674 5.55268 12.7402 5.64645 12.6464C5.74022 12.5527 5.86739 12.5 6 12.5H12H12.5V12V6C12.5 5.86739 12.5527 5.74022 12.6464 5.64645C12.7402 5.55268 12.8674 5.5 13 5.5C13.1326 5.5 13.2598 5.55268 13.3536 5.64645C13.4473 5.74022 13.5 5.86739 13.5 6V12Z" fill="#EAEAEA" stroke="#DFDFDF"/>
</svg>
