<svg width="18" height="17" viewBox="0 0 18 17" fill="none" xmlns="http://www.w3.org/2000/svg">
<path d="M7.76923 7.26923H9V12.8077M9 12.8077H7.15385M9 12.8077H10.8462M9 4.5H9.00615V4.50615H9V4.5ZM9.30769 4.5C9.30769 4.58161 9.27528 4.65987 9.21757 4.71757C9.15987 4.77528 9.08161 4.80769 9 4.80769C8.91839 4.80769 8.84013 4.77528 8.78243 4.71757C8.72472 4.65987 8.69231 4.58161 8.69231 4.5C8.69231 4.41839 8.72472 4.34013 8.78243 4.28243C8.84013 4.22473 8.91839 4.19231 9 4.19231C9.08161 4.19231 9.15987 4.22473 9.21757 4.28243C9.27528 4.34013 9.30769 4.41839 9.30769 4.5ZM17 8.5C17 10.6217 16.1571 12.6566 14.6569 14.1569C13.1566 15.6571 11.1217 16.5 9 16.5C6.87827 16.5 4.84344 15.6571 3.34315 14.1569C1.84285 12.6566 1 10.6217 1 8.5C1 6.37827 1.84285 4.34344 3.34315 2.84315C4.84344 1.34285 6.87827 0.5 9 0.5C11.1217 0.5 13.1566 1.34285 14.6569 2.84315C16.1571 4.34344 17 6.37827 17 8.5Z" stroke="#666666"/>
</svg>
