<svg xmlns="http://www.w3.org/2000/svg" width="20" height="20" viewBox="0 0 20 20" fill="none">
  <path d="M10.0156 0C9.58877 0 9.16194 0.2305 8.94104 0.695408L6.49611 5.86799L1.02591 6.69623C0.0449475 6.84469 -0.348188 8.10658 0.3632 8.82933L4.32076 12.8533L3.38472 18.5377C3.21624 19.5574 4.24588 20.3348 5.12201 19.8543L10.0156 17.1742V0Z" fill="#EAEAEA"/>
  <path d="M9.98439 0C10.4112 0 10.8381 0.2305 11.059 0.695408L13.5039 5.86799L18.9741 6.69623C19.9551 6.84469 20.3482 8.10658 19.6368 8.82933L15.6792 12.8533L16.6153 18.5377C16.7838 19.5574 15.7541 20.3348 14.878 19.8543L9.98439 17.1742V0Z" fill="#EAEAEA"/>
</svg>