<svg xmlns="http://www.w3.org/2000/svg" width="36" height="36" viewBox="0 0 36 36" fill="none">
  <path d="M18.0281 0C17.2598 0 16.4915 0.414901 16.0939 1.25173L11.693 10.5624L1.84664 12.0532C0.0809056 12.3204 -0.626738 14.5918 0.65376 15.8928L7.77737 23.136L6.0925 33.3678C5.78923 35.2033 7.64258 36.6027 9.21961 35.7377L18.0281 30.9136V0Z" fill="#EAEAEA"/>
  <path d="M17.9719 0C18.7402 0 19.5085 0.414901 19.9061 1.25173L24.307 10.5624L34.1534 12.0532C35.9191 12.3204 36.6267 14.5918 35.3462 15.8928L28.2226 23.136L29.9075 33.3678C30.2108 35.2033 28.3574 36.6027 26.7804 35.7377L17.9719 30.9136V0Z" fill="#EAEAEA"/>
</svg>