<svg width="60" height="36" viewBox="0 0 60 36" fill="none" xmlns="http://www.w3.org/2000/svg">
  <path d="M30.0281 0C29.2598 0 28.4915 0.414901 28.0939 1.25173L23.693 10.5624L13.8466 12.0532C12.0809 12.3204 11.3733 14.5918 12.6538 15.8928L19.7774 23.136L18.0925 33.3678C17.7892 35.2033 19.6426 36.6027 21.2196 35.7377L30.0281 30.9136V0Z" fill="#EAEAEA"/>
  <path d="M29.9719 0C30.7402 0 31.5085 0.414901 31.9061 1.25173L36.307 10.5624L46.1534 12.0532C47.9191 12.3204 48.6267 14.5918 47.3462 15.8928L40.2226 23.136L41.9075 33.3678C42.2108 35.2033 40.3574 36.6027 38.7804 35.7377L29.9719 30.9136V0Z" fill="#EAEAEA"/>
</svg>
