<svg width="32" height="20" viewBox="0 0 32 20" fill="none" xmlns="http://www.w3.org/2000/svg">
  <path d="M16.0156 0C15.5888 0 15.1619 0.2305 14.941 0.695408L12.4961 5.86799L7.02591 6.69623C6.04495 6.84469 5.65181 8.10658 6.3632 8.82933L10.3208 12.8533L9.38472 18.5377C9.21624 19.5574 10.2459 20.3348 11.122 19.8543L16.0156 17.1742V0Z" fill="#083B63"/>
  <path d="M15.9844 0C16.4112 0 16.8381 0.2305 17.059 0.695408L19.5039 5.86799L24.9741 6.69623C25.9551 6.84469 26.3482 8.10658 25.6368 8.82933L21.6792 12.8533L22.6153 18.5377C22.7838 19.5574 21.7541 20.3348 20.878 19.8543L15.9844 17.1742V0Z" fill="#083B63"/>
</svg>
