<svg width="24" height="24" viewBox="0 0 24 24" fill="none" xmlns="http://www.w3.org/2000/svg">
<path d="M13.5847 11.999L18.4175 7.17677C18.6292 6.9651 18.7481 6.67802 18.7481 6.37867C18.7481 6.07933 18.6292 5.79225 18.4175 5.58058C18.2059 5.36891 17.9189 5.25 17.6196 5.25C17.3203 5.25 17.0332 5.36891 16.8216 5.58058L12 10.4141L7.17841 5.58058C6.96677 5.36891 6.67973 5.25 6.38043 5.25C6.08113 5.25 5.79409 5.36891 5.58245 5.58058C5.37081 5.79225 5.25192 6.07933 5.25192 6.37867C5.25192 6.67802 5.37081 6.9651 5.58245 7.17677L10.4153 11.999L5.58245 16.8213C5.47711 16.9258 5.3935 17.0501 5.33644 17.1871C5.27938 17.3241 5.25 17.471 5.25 17.6194C5.25 17.7678 5.27938 17.9147 5.33644 18.0517C5.3935 18.1887 5.47711 18.313 5.58245 18.4175C5.68693 18.5229 5.81124 18.6065 5.9482 18.6636C6.08516 18.7206 6.23206 18.75 6.38043 18.75C6.5288 18.75 6.6757 18.7206 6.81266 18.6636C6.94962 18.6065 7.07393 18.5229 7.17841 18.4175L12 13.584L16.8216 18.4175C16.9261 18.5229 17.0504 18.6065 17.1873 18.6636C17.3243 18.7206 17.4712 18.75 17.6196 18.75C17.7679 18.75 17.9148 18.7206 18.0518 18.6636C18.1888 18.6065 18.3131 18.5229 18.4175 18.4175C18.5229 18.313 18.6065 18.1887 18.6636 18.0517C18.7206 17.9147 18.75 17.7678 18.75 17.6194C18.75 17.471 18.7206 17.3241 18.6636 17.1871C18.6065 17.0501 18.5229 16.9258 18.4175 16.8213L13.5847 11.999Z" fill="#727272"/>
</svg>
